<svg xmlns="http://www.w3.org/2000/svg" width="36" height="36" viewBox="0 0 36 36">
  <g id="Group_209" data-name="Group 209" transform="translate(-381 -550)">
    <circle id="Ellipse_10" data-name="Ellipse 10" cx="18" cy="18" r="18" transform="translate(381 550)"/>
    <path id="Icon_awesome-apple" data-name="Icon awesome-apple" d="M14.8,13.17a4.307,4.307,0,0,1,2.307-3.912A4.957,4.957,0,0,0,13.2,7.2c-1.638-.129-3.428.955-4.083.955-.692,0-2.279-.909-3.525-.909C3.017,7.288.281,9.3.281,13.392a11.5,11.5,0,0,0,.664,3.746c.591,1.693,2.722,5.845,4.946,5.776,1.163-.028,1.984-.826,3.5-.826,1.467,0,2.228.826,3.525.826,2.242-.032,4.171-3.806,4.734-5.5A4.573,4.573,0,0,1,14.8,13.17ZM12.189,5.595A4.345,4.345,0,0,0,13.3,2.25a4.892,4.892,0,0,0-3.133,1.61A4.413,4.413,0,0,0,8.983,7.177a3.875,3.875,0,0,0,3.206-1.582Z" transform="translate(390.036 553.75)" fill="#fff"/>
  </g>
</svg>
