<svg xmlns="http://www.w3.org/2000/svg" width="38" height="38" viewBox="0 0 38 38">
  <g id="Group_211" data-name="Group 211" transform="translate(-266 -549)">
    <g id="Ellipse_8" data-name="Ellipse 8" transform="translate(267 550)" fill="#fff" stroke="#c6c6c6" stroke-width="1">
      <circle cx="18" cy="18" r="18" stroke="none"/>
      <circle cx="18" cy="18" r="18.5" fill="none"/>
    </g>
    <g id="google" transform="translate(273.645 557)">
      <path id="Path_52" data-name="Path 52" d="M277.135,211.479h-9.263a.741.741,0,0,0-.741.741v2.959a.741.741,0,0,0,.741.741h5.217a6.964,6.964,0,0,1-3,3.513l2.224,3.85a11.134,11.134,0,0,0,5.678-9.737,7.507,7.507,0,0,0-.128-1.454A.744.744,0,0,0,277.135,211.479Z" transform="translate(-255.282 -202.099)" fill="#167ee6"/>
      <path id="Path_53" data-name="Path 53" d="M44.24,337.306a6.91,6.91,0,0,1-5.978-3.459l-3.85,2.219a11.346,11.346,0,0,0,15.506,4.162v-.005l-2.224-3.851A6.86,6.86,0,0,1,44.24,337.306Z" transform="translate(-32.885 -319.039)" fill="#12b347"/>
      <path id="Path_54" data-name="Path 54" d="M261.678,394.635v-.005l-2.224-3.851a6.86,6.86,0,0,1-3.453.934v4.443A11.336,11.336,0,0,0,261.678,394.635Z" transform="translate(-244.645 -373.446)" fill="#0f993e"/>
      <path id="Path_55" data-name="Path 55" d="M4.443,133.791a6.861,6.861,0,0,1,.933-3.453l-3.85-2.219a11.3,11.3,0,0,0,0,11.345l3.85-2.219A6.86,6.86,0,0,1,4.443,133.791Z" transform="translate(0 -122.436)" fill="#ffd500"/>
      <path id="Path_56" data-name="Path 56" d="M44.24,4.443a6.88,6.88,0,0,1,4.388,1.575.738.738,0,0,0,.993-.045l2.1-2.1a.746.746,0,0,0-.043-1.091,11.33,11.33,0,0,0-17.264,2.9L38.261,7.9A6.91,6.91,0,0,1,44.24,4.443Z" transform="translate(-32.885)" fill="#ff4b26"/>
      <path id="Path_57" data-name="Path 57" d="M260.388,6.019a.738.738,0,0,0,.993-.045l2.1-2.1a.746.746,0,0,0-.043-1.091A11.321,11.321,0,0,0,256,0V4.443A6.88,6.88,0,0,1,260.388,6.019Z" transform="translate(-244.645)" fill="#d93f21"/>
    </g>
  </g>
</svg>
